<svg width="88" height="27" viewBox="0 0 88 27" fill="none" xmlns="http://www.w3.org/2000/svg">
<path d="M23.8107 13.291C23.8107 15.4879 23.8117 17.6847 23.8137 19.8815C23.8137 20.1019 23.732 20.2357 23.543 20.3408C19.9137 22.3594 16.2862 24.3814 12.6604 26.4067C12.4607 26.5182 12.289 26.5224 12.0876 26.4081C8.48633 24.3767 4.88358 22.3487 1.27936 20.3241C1.24109 20.3048 1.20388 20.2834 1.16789 20.26C1.06995 20.1891 1.00765 20.0973 1.01203 19.969C1.01355 19.9258 1.01203 19.8824 1.01203 19.839C1.01203 15.4599 1.01095 11.0808 1.00879 6.70154C1.00879 6.47976 1.0932 6.34727 1.28108 6.24274C4.91184 4.22239 8.54095 2.19888 12.1684 0.172232C12.3624 0.0640406 12.5331 0.0611478 12.7294 0.172232C16.337 2.20583 19.9457 4.23724 23.5554 6.26646C23.5887 6.28575 23.6222 6.3033 23.6539 6.32432C23.756 6.39278 23.8122 6.48728 23.8107 6.6136C23.8107 6.67628 23.8107 6.73896 23.8107 6.80144V13.291ZM7.35468 7.34491C9.0349 11.1324 10.7083 14.9062 12.3934 18.7041C14.1072 14.9048 15.8086 11.1316 17.5162 7.34491H7.35468ZM22.9511 19.2477C22.9197 19.1106 18.0593 8.15644 17.9882 8.05635C17.9034 8.20176 13.8305 17.2133 12.9855 19.1262C12.9721 19.1567 12.9616 19.1885 12.9506 19.22C12.9495 19.2234 12.9529 19.229 12.9548 19.2333C12.9567 19.2375 12.9588 19.2416 12.9622 19.2483L22.9511 19.2477ZM6.91091 8.10302C5.24078 11.8058 3.58419 15.4805 1.9276 19.1548C1.918 19.1766 1.90954 19.1988 1.90225 19.2215C1.90092 19.2252 1.90454 19.2306 1.90645 19.235C1.90822 19.2382 1.91026 19.2412 1.91254 19.2441H11.8529C10.2056 15.5308 8.56426 11.8305 6.91091 8.10302ZM12.0366 25.5508C12.0657 25.493 12.0556 25.449 12.0556 25.4068C12.0556 23.6442 12.0556 21.8818 12.0556 20.1194C12.0556 20.0905 12.0545 20.0616 12.0556 20.0329C12.0571 19.9897 12.0366 19.9719 11.995 19.975C11.9714 19.9762 11.9476 19.975 11.9238 19.975C8.70228 19.975 5.48081 19.975 2.25933 19.975C2.23037 19.975 2.19436 19.9575 2.16578 19.9989L12.0366 25.5508ZM12.7827 25.5123L22.672 19.9985C22.6693 19.9906 22.6665 19.9825 22.6636 19.9746H12.9146C12.7494 19.9746 12.7673 19.9536 12.7671 20.1331C12.7671 21.8723 12.7671 23.6114 12.7671 25.3505C12.7667 25.3977 12.7581 25.4448 12.7835 25.5117L12.7827 25.5123ZM7.71958 6.6055C8.10905 6.63867 17.0839 6.62478 17.195 6.5893L12.4975 0.941532L7.71958 6.6055ZM1.72314 17.7948L1.75477 17.8011L6.47303 7.33912H1.9133C1.72276 7.33912 1.72276 7.33912 1.72276 7.52465V17.7948H1.72314ZM23.0706 17.7101L23.1001 17.701V7.4882C23.1001 7.46409 23.0984 7.43998 23.1001 7.41607C23.1043 7.36439 23.0916 7.33083 23.0308 7.33893C23.0117 7.34019 22.9927 7.34019 22.9736 7.33893C21.5079 7.33893 20.0423 7.33893 18.5768 7.33893C18.5471 7.33893 18.5114 7.32389 18.4815 7.36458C20.0103 10.8121 21.54 14.2606 23.0706 17.7101ZM10.8758 1.75249L10.8531 1.73127C7.95554 3.34882 5.05805 4.96649 2.16063 6.58429C2.15728 6.58744 2.15529 6.59181 2.15511 6.59644C2.15415 6.61572 2.1713 6.59644 2.15625 6.6136C2.17702 6.6136 2.19531 6.61611 2.21341 6.61611C3.69813 6.61611 5.18299 6.61688 6.66796 6.61842C6.75599 6.61842 6.80477 6.58139 6.85679 6.51929C8.00488 5.15645 9.1538 3.79405 10.3036 2.43211C10.4945 2.2057 10.6852 1.97916 10.8758 1.75249ZM22.6514 6.6163C22.6442 6.59374 22.644 6.58101 22.6385 6.57773C19.8362 5.00146 17.0331 3.42557 14.2293 1.85007C14.2265 1.84853 14.2208 1.85123 14.217 1.85316C14.213 1.8556 14.2094 1.85851 14.2061 1.86184C14.2154 1.90157 14.2476 1.92529 14.2718 1.95422C14.449 2.16828 14.6269 2.38203 14.8054 2.59546C15.8899 3.89955 16.9741 5.20454 18.0578 6.51042C18.1218 6.58756 18.1862 6.61919 18.2864 6.619C19.7003 6.61591 21.114 6.61521 22.5277 6.61688L22.6514 6.6163Z" fill="#151515" stroke="black" stroke-width="0.18"/>
<path d="M31.9995 13.2812C31.9995 11.3717 31.9995 9.46195 31.9995 7.55194C31.9995 7.13771 32.0044 7.12904 32.342 7.13265C32.6 7.13265 32.9211 7.0078 33.0988 7.18533C33.2766 7.36286 33.1656 7.76267 33.1675 8.05855C33.1748 9.48167 33.1675 10.9055 33.1718 12.3286C33.1718 12.7111 33.1785 12.7155 33.4947 12.7205C33.8311 12.7256 34.1688 12.701 34.504 12.7284C34.762 12.7494 34.8478 12.6151 34.8858 12.3452C35.0184 11.4164 35.3566 10.5452 35.8663 9.8194C36.908 8.30824 38.2795 7.49927 39.9004 7.2171C41.2079 6.98221 42.5451 7.22106 43.7347 7.90196C45.176 8.71238 46.2472 9.96158 46.681 11.8141C47.2197 14.0967 46.6198 16.0257 45.1631 17.5629C43.7065 19.1 41.96 19.6434 40.0229 19.3793C38.5448 19.1787 37.2653 18.4938 36.2199 17.2417C35.5446 16.4483 35.0842 15.437 34.8968 14.3356C34.8153 13.8636 34.9176 13.8687 34.3949 13.8694C34.0732 13.8694 33.7515 13.8795 33.431 13.8694C33.233 13.8614 33.1632 13.9466 33.1675 14.1811C33.1779 14.7751 33.1675 15.3697 33.1675 15.9644C33.1675 17.0093 33.1595 18.0572 33.173 19.0993C33.1767 19.3829 33.1074 19.4875 32.8666 19.4601C32.5945 19.4298 32.2501 19.5857 32.0663 19.3973C31.8824 19.209 32.0001 18.7875 31.9989 18.47C31.9958 16.738 31.9995 15.0111 31.9995 13.2812ZM40.4592 18.2643C42.0525 18.2643 43.1862 17.8212 44.1085 16.9769C46.2404 15.0284 46.2374 11.5557 44.1005 9.61013C43.3752 8.94504 42.5098 8.52493 41.5972 8.39484C39.8912 8.13865 38.3812 8.63878 37.1476 10.0706C35.5592 11.913 35.5697 14.6776 37.1476 16.5323C38.1637 17.7238 39.4181 18.234 40.4592 18.2643Z" fill="#151515"/>
<path d="M64.2825 17.1522C64.4222 16.9942 64.5423 16.8636 64.6563 16.7293C67.235 13.6502 69.8143 10.5711 72.3942 7.49203C72.5081 7.35564 72.5927 7.14781 72.7802 7.1377C73.007 7.12616 73.2705 7.06554 73.4543 7.18029C73.613 7.28132 73.5156 7.61327 73.5156 7.83699C73.5193 11.5131 73.5193 15.1895 73.5156 18.8662C73.5156 18.9925 73.5101 19.1188 73.5156 19.2443C73.5242 19.4096 73.4604 19.4608 73.3269 19.4608C73.0204 19.4543 72.714 19.4608 72.3703 19.4608V9.47301C72.1405 9.51776 72.0602 9.70971 71.9511 9.83961C69.3706 12.9175 66.7852 15.9903 64.2298 19.0935C63.9062 19.4854 63.5704 19.4543 63.1966 19.4543C63.1776 19.4572 63.1583 19.4549 63.1402 19.4478C63.122 19.4406 63.1055 19.4287 63.0918 19.4129C63.0782 19.3972 63.0677 19.378 63.0612 19.3568C63.0547 19.3356 63.0524 19.3129 63.0544 19.2905C63.0544 19.1642 63.0544 19.0386 63.0544 18.9124V7.66741C63.0544 7.55916 63.0581 7.45091 63.0544 7.34266C63.0489 7.17524 63.1255 7.12039 63.2536 7.12977C63.2689 7.12977 63.2842 7.12977 63.2995 7.12977C63.5888 7.13843 63.9522 7.02512 64.147 7.18966C64.3627 7.37224 64.2206 7.82688 64.2218 8.15957C64.2298 10.9741 64.2255 13.7828 64.2279 16.5944C64.2261 16.764 64.1863 16.9451 64.2825 17.1522Z" fill="#151515"/>
<path d="M50.7036 7.12992C50.7802 7.32982 50.7496 7.5124 50.7496 7.68993C50.7496 9.18522 50.7496 10.6805 50.7496 12.1758C50.7496 12.717 50.7496 12.7214 51.1878 12.7214C53.6214 12.7214 56.0546 12.7214 58.4875 12.7214C58.9501 12.7214 58.9023 12.7437 58.9023 12.2205C58.9023 10.6711 58.9023 9.12098 58.9023 7.57157C58.9023 7.13857 58.906 7.12269 59.27 7.13351C59.5237 7.14073 59.8412 7.00001 60.0146 7.21146C60.1702 7.40125 60.063 7.76209 60.0636 8.04715C60.0673 11.6507 60.0673 15.2542 60.0636 18.8577C60.0636 18.9832 60.0593 19.1095 60.0636 19.2358C60.0697 19.3982 60.006 19.461 59.8718 19.4574C59.6726 19.4523 59.4741 19.4574 59.2749 19.4574C58.8693 19.4574 58.8993 19.4848 58.8993 19.0244C58.8993 17.5291 58.8993 16.0338 58.8993 14.5385C58.8993 13.871 58.8993 13.8702 58.3478 13.8702H51.3287C51.2521 13.8702 51.1755 13.8702 51.0989 13.8702C50.7594 13.8832 50.7533 13.8832 50.7527 14.3032C50.7527 15.8527 50.7527 17.4064 50.7527 18.9522V19.3628C50.7098 19.4004 50.6914 19.435 50.6656 19.435C50.3317 19.4487 49.9971 19.4747 49.6637 19.422C49.5485 19.0402 49.6147 18.6455 49.6141 18.258C49.6075 14.7459 49.6061 11.2326 49.6098 7.71807C49.6098 7.59178 49.6147 7.46548 49.6098 7.33919C49.603 7.17826 49.6631 7.11764 49.7985 7.12269C50.1025 7.13424 50.4076 7.12992 50.7036 7.12992Z" fill="#151515"/>
<path d="M76.5502 8.32043C76.516 7.94089 76.5123 7.55839 76.5392 7.17803C76.6807 7.09215 76.8198 7.13183 76.9534 7.13183C80.1372 7.12895 83.3207 7.12895 86.504 7.13183C86.5652 7.13689 86.6266 7.13689 86.6878 7.13183C86.9409 7.08781 86.9881 7.23649 86.9899 7.5035C86.9955 8.32403 87.004 8.32402 86.2913 8.32402C85.127 8.32402 83.9627 8.32402 82.7984 8.32402C82.2732 8.32402 82.3265 8.25187 82.3265 8.86168C82.3265 12.1958 82.3265 15.5298 82.3265 18.8639C82.3265 19.4593 82.3265 19.4593 81.8185 19.46C81.1658 19.46 81.1659 19.46 81.1659 18.7001V8.96559C81.1659 8.8393 81.1591 8.71229 81.1659 8.58744C81.1799 8.37094 81.0886 8.31393 80.9207 8.31754C80.4464 8.32692 79.9721 8.31754 79.4978 8.31754L76.5502 8.32043Z" fill="#151515"/>
</svg>
